<svg id="Layer_1" data-name="Layer 1" xmlns="http://www.w3.org/2000/svg" viewBox="0 0 77.3 80"><defs><style>.cls-1{fill:#9c3;}</style></defs><title>industries</title><path class="cls-1" d="M52.35,701.11c1.5,0.22,3,.38,4.51.66a38.29,38.29,0,0,1,25.33,16.77,36.62,36.62,0,0,1,6.46,21.76A38.3,38.3,0,0,1,75.35,769a3.38,3.38,0,0,1-.59.46,1.22,1.22,0,0,1-1.65-.27,1.26,1.26,0,0,1,0-1.68,3.73,3.73,0,0,1,.54-0.51c8.66-7.73,12.83-17.42,12.34-29a35.62,35.62,0,0,0-26.91-33.07,36,36,0,0,0-33.27,61.53l0.81,0.72a1.36,1.36,0,0,1,.36,2,1.32,1.32,0,0,1-2,0,63.19,63.19,0,0,1-4.7-4.82,38,38,0,0,1-8.71-21.48,6,6,0,0,0-.15-0.73v-4.67c0.07-.54.15-1.08,0.21-1.63a37.77,37.77,0,0,1,6.31-17.32,38.39,38.39,0,0,1,25.31-16.72c1.49-.29,3-0.44,4.5-0.66h4.67Z" transform="translate(-11.35 -701.11)"/><path class="cls-1" d="M32.18,781.11c-1-.93-1-1.22-0.38-2.51Q40,762.77,48.25,746.93a4.16,4.16,0,0,0,.42-1.73c0.05-1.72,0-3.44,0-5.16a1.34,1.34,0,1,1,2.64,0c0,1.78,0,3.55,0,5.33a3.33,3.33,0,0,0,.34,1.41q8.24,15.92,16.53,31.82c0.67,1.29.63,1.57-.37,2.51H32.18Zm5.4-2.73H62.45l-10.09-6.06c-0.76-.46-1.53-1.25-2.29-1.25s-1.6.77-2.38,1.24Zm5.1-14.95c2.4,1.44,4.72,2.84,7.06,4.21a1,1,0,0,0,.81-0.13c2.1-1.24,4.19-2.5,6.28-3.76a5.51,5.51,0,0,0,.5-0.38c-0.57-1.09-1.08-2.14-1.66-3.14a1,1,0,0,0-.75-0.44q-4.91,0-9.83,0a1,1,0,0,0-.74.46C43.77,761.26,43.26,762.3,42.67,763.43Zm4.77,5.94-6-3.6-5.28,10.17,0.16,0.1Zm16.29,6.69,0.13-.12-5.29-10.17-6,3.6Zm-9.67-19L50,749.31l-4,7.79h8.1Z" transform="translate(-11.35 -701.11)"/><path class="cls-1" d="M27.33,739.24a22.75,22.75,0,0,0,3.44,12.52l0.31,0.49a1.37,1.37,0,0,1-.27,2,1.35,1.35,0,0,1-2-.64,39,39,0,0,1-2.27-4.34A25.3,25.3,0,1,1,75,736.11a25,25,0,0,1-3.64,17.22c-0.1.17-.2,0.33-0.32,0.49a1.31,1.31,0,0,1-1.82.44,1.36,1.36,0,0,1-.37-1.9,40.54,40.54,0,0,0,2.43-4.82A22.68,22.68,0,1,0,28.1,733.84a23,23,0,0,0-.55,2.77C27.41,737.66,27.37,738.71,27.33,739.24Z" transform="translate(-11.35 -701.11)"/><path class="cls-1" d="M37.94,739.83a12.43,12.43,0,0,1,11.35-12,12.12,12.12,0,0,1,12.54,10.41,19.13,19.13,0,0,1-.19,4.37A1.28,1.28,0,0,1,60,743.75a1.35,1.35,0,0,1-.94-1.76c1.35-6.48-3.1-11.81-9.65-11.54a9.19,9.19,0,0,0-8.66,10.78c0,0.27.11,0.54,0.15,0.82a1.34,1.34,0,0,1-1,1.54,1.27,1.27,0,0,1-1.59-1C38.18,741.7,38.08,740.76,37.94,739.83Z" transform="translate(-11.35 -701.11)"/></svg>