<svg id="Layer_1" data-name="Layer 1" xmlns="http://www.w3.org/2000/svg" viewBox="0 0 78.62 80"><defs><style>.cls-1{fill:#3cc;}</style></defs><title>Practice</title><path id="path35563" class="cls-1" d="M76.93,460.9a1.38,1.38,0,0,0-1.22.7l-2.22,3.79a6.83,6.83,0,0,0-2.11-.33A6.89,6.89,0,0,0,66.69,477l-9,15.28a9.58,9.58,0,0,0-4.28-1,9.68,9.68,0,0,0-9.53,8.13l-9.78-1.55A6.89,6.89,0,1,0,22,502.6l-11,14a1.38,1.38,0,1,0,2.14,1.74l0,0,11-14a6.83,6.83,0,0,0,3.09.74,6.92,6.92,0,0,0,6.45-4.48l10.18,1.61A9.65,9.65,0,1,0,60,493.84l9-15.4a6.83,6.83,0,0,0,2.34.41,6.89,6.89,0,0,0,4.51-12.1l2.2-3.75A1.38,1.38,0,0,0,76.93,460.9Zm-5.55,6.91a4.15,4.15,0,0,1,1.81.42,1.38,1.38,0,0,0,.4.22,4.14,4.14,0,0,1-4.17,7.15,1.38,1.38,0,0,0-.43-0.26A4.14,4.14,0,0,1,71.38,467.81ZM27.25,494a4.14,4.14,0,1,1-2.35,7.55h0a1.38,1.38,0,0,0-.39-0.31A4.14,4.14,0,0,1,27.25,494Zm26.2,0a6.88,6.88,0,0,1,3.75,1.1,1.38,1.38,0,0,0,.45.32,6.9,6.9,0,1,1-11.09,5.77,1.38,1.38,0,0,0,0-.47A6.87,6.87,0,0,1,53.45,494Z" transform="translate(-10.69 -460.9)"/><path class="cls-1" d="M88.9,531.19l0,0L72.17,515.92c0.18-.33.36-0.67,0.52-1a19.78,19.78,0,0,0-4.21-22.77,1.38,1.38,0,1,0-1.9,2,17,17,0,1,1-28.43,15.61,1.38,1.38,0,0,0-2.71.49v0A19.76,19.76,0,0,0,64.7,523.55l14.84,16.89a1.38,1.38,0,0,0,1.95.13l0.06-.06,7.36-7.35A1.38,1.38,0,0,0,88.9,531.19ZM67,522a19.73,19.73,0,0,0,3.65-3.72l12.07,11L77.6,534Zm13.63,15.51-2.13-2.42,5.24-4.87,2.19,2Z" transform="translate(-10.69 -460.9)"/></svg>