<svg id="Layer_1" data-name="Layer 1" xmlns="http://www.w3.org/2000/svg" viewBox="0 0 60.35 80.25"><defs><style>.cls-1{fill:#f60;}</style></defs><title>services</title><path class="cls-1" d="M42.73,656.11a1,1,0,1,1,0-2H57.28a1,1,0,1,1,0,2H42.73Z" transform="translate(-19.82 -585.85)"/><path class="cls-1" d="M44.34,661.11a1,1,0,1,1,0-2H55.66a1,1,0,1,1,0,2H44.34Z" transform="translate(-19.82 -585.85)"/><path class="cls-1" d="M48.82,643.7a1.25,1.25,0,0,1-2.49,0,66.11,66.11,0,0,0-.88-12.85,36.94,36.94,0,0,0-4.3-11.07,1.25,1.25,0,0,1,2.18-1.21,39.29,39.29,0,0,1,4.57,11.79A68.46,68.46,0,0,1,48.82,643.7Z" transform="translate(-19.82 -585.85)"/><path class="cls-1" d="M53.67,643.7a1.25,1.25,0,0,1-2.49,0,68.49,68.49,0,0,1,.92-13.34,39.3,39.3,0,0,1,4.57-11.79,1.25,1.25,0,0,1,2.18,1.21,37,37,0,0,0-4.3,11.07A66.12,66.12,0,0,0,53.67,643.7Z" transform="translate(-19.82 -585.85)"/><path class="cls-1" d="M41.86,620.36a1.25,1.25,0,0,1,.76-2.38,16.19,16.19,0,0,1,2.32,1L45,619c1.09,0.55,2,1,2.67.43l1.54-1.25a1.25,1.25,0,0,1,1.57,1.94l-1.54,1.25c-1.92,1.56-3.48.8-5.37-.15l-0.06,0A14,14,0,0,0,41.86,620.36Z" transform="translate(-19.82 -585.85)"/><path class="cls-1" d="M51,592a1,1,0,1,1-2,0v-4.85a1,1,0,1,1,2,0V592Z" transform="translate(-19.82 -585.85)"/><path class="cls-1" d="M57.38,618a1.25,1.25,0,0,1,.76,2.38,14.17,14.17,0,0,0-2,.86l-0.06,0c-1.89.95-3.46,1.71-5.37,0.15l-1.54-1.25a1.25,1.25,0,1,1,1.57-1.94l1.54,1.25C53,620,53.9,619.58,55,619l0.07,0A16,16,0,0,1,57.38,618Z" transform="translate(-19.82 -585.85)"/><path class="cls-1" d="M65.75,605.31A22.25,22.25,0,0,1,68,634.19,78.82,78.82,0,0,1,62.38,641c-2.61,2.88-3.75,4.39-3.75,8.61a1.49,1.49,0,0,1-1.25,1.5H42.73a1.49,1.49,0,0,1-1.25-1.5c0-4.17-1.17-5.57-3.75-8.41v-0.09a75.94,75.94,0,0,1-5.7-6.9,22.29,22.29,0,0,1-2.59-21.66l0-.05A21.66,21.66,0,0,1,34,605.31a33.21,33.21,0,0,1,7-4.83h0a25,25,0,0,1,8.76-1.69,22.83,22.83,0,0,1,16,6.52h0Zm4,15.75a19.8,19.8,0,0,0-12.21-18.27,20.84,20.84,0,0,0-7.78-1.49A23.74,23.74,0,0,0,42,602.79h0.22a19.29,19.29,0,0,0-6.3,4.3,19.7,19.7,0,0,0-4.22,6.35v0.07A19.79,19.79,0,0,0,34,632.71a73.67,73.67,0,0,0,5.54,6.68h0c2.79,3,4.17,4.71,4.39,8.71H56.16c0.21-4,1.57-5.68,4.37-8.78A76,76,0,0,0,66,632.72,19.73,19.73,0,0,0,69.77,621.06Z" transform="translate(-19.82 -585.85)"/><path class="cls-1" d="M46,666.11a1,1,0,1,1,0-2H54a1,1,0,1,1,0,2H46Z" transform="translate(-19.82 -585.85)"/><path class="cls-1" d="M65.36,596.4a1.25,1.25,0,1,1-2.16-1.24l2.43-4.2a1.25,1.25,0,0,1,2.16,1.24Z" transform="translate(-19.82 -585.85)"/><path class="cls-1" d="M36.8,595.16a1.25,1.25,0,1,1-2.16,1.24l-2.43-4.2A1.25,1.25,0,0,1,34.38,591Z" transform="translate(-19.82 -585.85)"/><path class="cls-1" d="M25.89,605.15a1.25,1.25,0,0,1-1.24,2.16l-4.2-2.43a1.25,1.25,0,1,1,1.24-2.16Z" transform="translate(-19.82 -585.85)"/><path class="cls-1" d="M75.35,607.32a1.25,1.25,0,0,1-1.24-2.16l4.2-2.43a1.25,1.25,0,1,1,1.24,2.16Z" transform="translate(-19.82 -585.85)"/></svg>